<svg width="33" height="33" viewBox="0 0 33 33" fill="none" xmlns="http://www.w3.org/2000/svg">
<path d="M16.5001 11.1668C15.4452 11.1668 14.4141 11.4796 13.537 12.0656C12.66 12.6516 11.9764 13.4846 11.5727 14.4591C11.169 15.4337 11.0634 16.506 11.2692 17.5406C11.475 18.5752 11.9829 19.5255 12.7288 20.2713C13.4747 21.0172 14.425 21.5252 15.4596 21.731C16.4941 21.9368 17.5665 21.8311 18.541 21.4275C19.5156 21.0238 20.3485 20.3402 20.9346 19.4632C21.5206 18.5861 21.8334 17.5549 21.8334 16.5001C21.8317 15.0861 21.2693 13.7305 20.2695 12.7307C19.2696 11.7309 17.914 11.1684 16.5001 11.1668Z" fill="#6F6F6F"/>
<path d="M29.8334 7.61122H24.4556L21.4761 4.34544C21.3926 4.25401 21.291 4.181 21.1778 4.1311C21.0645 4.0812 20.9421 4.05551 20.8183 4.05566H12.1809C12.0573 4.05563 11.935 4.08139 11.8219 4.13128C11.7088 4.18118 11.6074 4.25412 11.5241 4.34544L8.5445 7.61122H3.16672C2.93097 7.61122 2.70488 7.70487 2.53818 7.87157C2.37148 8.03827 2.27783 8.26436 2.27783 8.50011V26.2779C2.27783 26.5136 2.37148 26.7397 2.53818 26.9064C2.70488 27.0731 2.93097 27.1668 3.16672 27.1668H29.8334C30.0691 27.1668 30.2952 27.0731 30.4619 26.9064C30.6286 26.7397 30.7223 26.5136 30.7223 26.2779V8.50011C30.7223 8.26436 30.6286 8.03827 30.4619 7.87157C30.2952 7.70487 30.0691 7.61122 29.8334 7.61122ZM16.5001 23.789C15.0584 23.789 13.6492 23.3615 12.4506 22.5606C11.2519 21.7597 10.3177 20.6213 9.766 19.2894C9.21432 17.9576 9.06998 16.492 9.35122 15.0781C9.63246 13.6642 10.3267 12.3655 11.346 11.3461C12.3654 10.3267 13.6642 9.63252 15.0781 9.35127C16.492 9.07003 17.9575 9.21438 19.2894 9.76605C20.6213 10.3177 21.7596 11.252 22.5605 12.4506C23.3615 13.6493 23.7889 15.0585 23.7889 16.5001C23.7889 18.4332 23.021 20.2872 21.6541 21.6541C20.2871 23.0211 18.4332 23.789 16.5001 23.789Z" fill="#6F6F6F"/>
</svg>
