<svg width="126" height="143" viewBox="0 0 126 143" fill="none" xmlns="http://www.w3.org/2000/svg">
<g clip-path="url(#clip0_320_8213)">
<rect x="60.0513" y="69.6274" width="57.2171" height="57.2171" rx="28.6086" fill="url(#paint0_linear_320_8213)"/>
<line x1="77" y1="111.757" x2="102.456" y2="86.3015" stroke="#FFB217" stroke-width="6" stroke-linecap="round"/>
<path d="M51.2865 25.9092C56.224 17.3571 67.1595 14.427 75.7115 19.3645L82.6797 23.3876C91.2317 28.3251 94.1619 39.2605 89.2244 47.8126L70.45 80.3307L32.5121 58.4273L51.2865 25.9092Z" fill="url(#paint1_linear_320_8213)"/>
<path d="M76.2954 30.3454L76.8578 30.697C81.6686 33.7045 83.4018 39.8782 80.8592 44.9502V44.9502" stroke="white" stroke-width="3.57607" stroke-linecap="round"/>
<path d="M29.8301 63.0728L67.7679 84.9762L48.9936 117.494C44.056 126.046 33.1206 128.977 24.5686 124.039L17.6004 120.016C9.04832 115.078 6.11819 104.143 11.0557 95.5909L29.8301 63.0728Z" fill="url(#paint2_linear_320_8213)"/>
</g>
<defs>
<linearGradient id="paint0_linear_320_8213" x1="83.7427" y1="69.6274" x2="100.282" y2="124.61" gradientUnits="userSpaceOnUse">
<stop stop-color="#FFD98C"/>
<stop offset="1" stop-color="#FFBC36"/>
</linearGradient>
<linearGradient id="paint1_linear_320_8213" x1="79.1956" y1="21.376" x2="51.4811" y2="69.379" gradientUnits="userSpaceOnUse">
<stop stop-color="#7199FF"/>
<stop offset="1" stop-color="#4E84FF"/>
</linearGradient>
<linearGradient id="paint2_linear_320_8213" x1="48.799" y1="74.0245" x2="21.0845" y2="122.027" gradientUnits="userSpaceOnUse">
<stop stop-color="#B6CDFF"/>
<stop offset="1" stop-color="#9CBBFF"/>
<stop offset="1" stop-color="#93B5FF"/>
</linearGradient>
<clipPath id="clip0_320_8213">
<rect width="126" height="143" fill="white"/>
</clipPath>
</defs>
</svg>
