<svg width="24" height="24" viewBox="0 0 24 24" fill="none" xmlns="http://www.w3.org/2000/svg">
<path d="M12.5217 21.0004C9.85914 21.0004 7.60638 20.0789 5.76341 18.2359C3.92114 16.3937 3 14.1412 3 11.4787C3 9.04538 3.79347 6.93369 5.38042 5.14361C6.96737 3.35424 8.99514 2.30968 11.4637 2.00992C11.9045 1.95702 12.2484 2.11571 12.4952 2.486C12.7421 2.85629 12.7333 3.24421 12.4688 3.64976C12.169 4.10822 11.944 4.59312 11.7938 5.10447C11.6443 5.61582 11.5695 6.15361 11.5695 6.71786C11.5695 8.30481 12.125 9.65371 13.2358 10.7646C14.3467 11.8754 15.6956 12.4309 17.2825 12.4309C17.8291 12.4309 18.3715 12.3515 18.9097 12.1928C19.4471 12.0341 19.9274 11.8137 20.3506 11.5316C20.7209 11.2847 21.1 11.2713 21.4879 11.4914C21.8759 11.7122 22.0434 12.0606 21.9905 12.5367C21.7436 14.97 20.7079 16.9889 18.8832 18.5935C17.0579 20.1981 14.9374 21.0004 12.5217 21.0004ZM12.5217 18.8845C14.0734 18.8845 15.4664 18.457 16.7007 17.6022C17.9349 16.7467 18.8342 15.6312 19.3985 14.2559C19.0458 14.344 18.6932 14.4146 18.3405 14.4675C17.9878 14.5204 17.6352 14.5468 17.2825 14.5468C15.1137 14.5468 13.2665 13.7844 11.7409 12.2595C10.216 10.7339 9.45359 8.88669 9.45359 6.71786C9.45359 6.36521 9.48004 6.01255 9.53294 5.6599C9.58583 5.30724 9.65636 4.95459 9.74453 4.60193C8.36917 5.16618 7.25408 6.06545 6.39924 7.29974C5.5437 8.53403 5.11593 9.92702 5.11593 11.4787C5.11593 13.5241 5.83887 15.2697 7.28476 16.7156C8.73065 18.1615 10.4763 18.8845 12.5217 18.8845Z" fill="#555555"/>
</svg>
