<svg width="33" height="33" viewBox="0 0 33 33" fill="none" xmlns="http://www.w3.org/2000/svg">
<path d="M16.5 1.38867C13.5113 1.38867 10.5898 2.27492 8.10475 3.93535C5.61974 5.59578 3.68291 7.95582 2.53919 10.717C1.39546 13.4782 1.09621 16.5165 1.67928 19.4478C2.26234 22.3791 3.70154 25.0716 5.81487 27.185C7.92819 29.2983 10.6207 30.7375 13.552 31.3205C16.4833 31.9036 19.5216 31.6044 22.2828 30.4606C25.044 29.3169 27.404 27.3801 29.0645 24.8951C30.7249 22.4101 31.6111 19.4885 31.6111 16.4998C31.6111 12.4921 30.0191 8.6485 27.1852 5.81461C24.3513 2.98073 20.5078 1.38867 16.5 1.38867ZM26.2618 25.5513C24.7743 24.0403 22.8295 23.0629 20.7294 22.7709C20.4485 22.7327 20.1912 22.5932 20.0061 22.3786C19.8209 22.1639 19.7206 21.889 19.724 21.6056V19.922C19.7304 19.6447 19.8354 19.3787 20.02 19.1718C21.3078 17.6092 22.0229 15.6534 22.0467 13.6287C22.0467 9.43312 19.8174 7.08645 16.4583 7.08645C13.0991 7.08645 10.8067 9.51934 10.8067 13.6287C10.8639 15.6636 11.6108 17.6188 12.9249 19.1736C13.1103 19.3805 13.2156 19.6469 13.2218 19.9247V21.5985C13.2262 21.8833 13.1251 22.1598 12.9381 22.3747C12.7511 22.5896 12.4912 22.7279 12.2085 22.7629C10.1136 23.0333 8.16518 23.9832 6.66181 25.4669C4.91285 23.5548 3.75899 21.1744 3.34133 18.6169C2.92368 16.0594 3.26033 13.4357 4.31012 11.0665C5.35992 8.69727 7.07735 6.68532 9.2524 5.27667C11.4275 3.86801 13.9659 3.1237 16.5572 3.13474C19.1485 3.14579 21.6805 3.91172 23.8435 5.33887C26.0064 6.76602 27.7066 8.79253 28.7362 11.1706C29.7657 13.5487 30.08 16.1752 29.6406 18.729C29.2011 21.2829 28.027 23.6533 26.2618 25.5505V25.5513Z" fill="#6F6F6F"/>
</svg>
