<svg width="20" height="20" viewBox="0 0 20 20" fill="none" xmlns="http://www.w3.org/2000/svg">
<path d="M18.1912 9.24099L12.2052 3.25399C12.0041 3.05269 11.7312 2.93955 11.4466 2.93945C11.162 2.93936 10.889 3.05232 10.6877 3.25349C10.4864 3.45465 10.3733 3.72755 10.3732 4.01213C10.3731 4.29672 10.4861 4.56969 10.6872 4.77099L14.8422 8.92699H2.06323C1.77866 8.92699 1.50574 9.04004 1.30451 9.24126C1.10328 9.44249 0.990234 9.71541 0.990234 9.99999C0.990234 10.2846 1.10328 10.5575 1.30451 10.7587C1.50574 10.9599 1.77866 11.073 2.06323 11.073H14.8422L10.6882 15.228C10.4869 15.4292 10.3738 15.702 10.3737 15.9866C10.3737 16.1275 10.4014 16.2671 10.4552 16.3973C10.5091 16.5275 10.5881 16.6458 10.6877 16.7455C10.7873 16.8452 10.9056 16.9242 11.0358 16.9782C11.1659 17.0322 11.3055 17.06 11.4464 17.06C11.731 17.0601 12.0039 16.9472 12.2052 16.746L18.1912 10.759C18.291 10.6593 18.3701 10.541 18.424 10.4108C18.478 10.2806 18.5058 10.141 18.5058 9.99999C18.5058 9.85901 18.478 9.71942 18.424 9.58919C18.3701 9.45896 18.291 9.34064 18.1912 9.24099Z" fill="#6F6F6F"/>
</svg>
