<svg width="33" height="33" viewBox="0 0 33 33" fill="none" xmlns="http://www.w3.org/2000/svg">
<path d="M29.9871 27.3576L23.0777 20.4492C24.7447 18.1223 25.4754 15.2536 25.1247 12.4129C24.7741 9.57218 23.3677 6.96727 21.185 5.11563C19.0023 3.26399 16.203 2.30111 13.3431 2.41825C10.4832 2.5354 7.77201 3.72399 5.74806 5.74794C3.72412 7.77189 2.53552 10.4831 2.41837 13.343C2.30123 16.2029 3.26411 19.0022 5.11575 21.1849C6.96739 23.3676 9.5723 24.774 12.413 25.1246C15.2538 25.4753 18.1225 24.7445 20.4493 23.0776L27.3577 29.9861C27.7155 30.285 28.1722 30.4392 28.638 30.4184C29.1038 30.3976 29.5449 30.2032 29.8745 29.8735C30.2042 29.5439 30.3986 29.1027 30.4194 28.637C30.4402 28.1712 30.286 27.7145 29.9871 27.3567V27.3576ZM5.83329 13.8332C5.83329 12.2509 6.30248 10.7042 7.18153 9.38861C8.06058 8.07301 9.31001 7.04763 10.7718 6.44213C12.2336 5.83663 13.8422 5.6782 15.394 5.98689C16.9459 6.29557 18.3713 7.05749 19.4901 8.17631C20.609 9.29513 21.3709 10.7206 21.6796 12.2724C21.9883 13.8243 21.8298 15.4328 21.2243 16.8946C20.6188 18.3564 19.5934 19.6059 18.2779 20.4849C16.9623 21.364 15.4155 21.8332 13.8333 21.8332C11.7116 21.8332 9.67673 20.9903 8.17643 19.49C6.67614 17.9897 5.83329 15.9549 5.83329 13.8332Z" fill="#6F6F6F"/>
</svg>
