<svg width="32" height="32" viewBox="0 0 32 32" fill="none" xmlns="http://www.w3.org/2000/svg">
<path d="M14.7038 4.17154C15.2424 3.00154 16.9051 3.00154 17.4438 4.17154L20.1332 10.0135C20.5043 10.8196 21.2737 11.3696 22.1565 11.4598L28.6112 12.1194C29.9235 12.2535 30.4434 13.8889 29.4495 14.7562L24.7197 18.8833C24.0298 19.4853 23.7227 20.4155 23.9186 21.3099L25.2541 27.4062C25.5323 28.6763 24.1806 29.6796 23.0454 29.0457L17.2967 25.8353C16.5367 25.4108 15.6109 25.4108 14.8508 25.8353L9.1021 29.0457C7.96696 29.6796 6.61526 28.6763 6.89346 27.4062L8.2289 21.3099C8.42483 20.4155 8.11779 19.4853 7.42787 18.8833L2.69809 14.7562C1.70414 13.8889 2.22404 12.2535 3.53635 12.1194L9.99099 11.4598C10.8738 11.3696 11.6433 10.8196 12.0144 10.0135L14.7038 4.17154Z" fill="#FFCE6D" stroke="#FFC654"/>
</svg>
