<svg width="16" height="19" viewBox="0 0 16 19" fill="none" xmlns="http://www.w3.org/2000/svg">
<path opacity="0.16" d="M5 19H13C13.5304 19 14.0391 18.7893 14.4142 18.4142C14.7893 18.0391 15 17.5304 15 17V5H3V17C3 17.5304 3.21071 18.0391 3.58579 18.4142C3.96086 18.7893 4.46957 19 5 19Z" fill="#5086FF"/>
<path d="M9.75 8V13.25M6.25 8V13.25M2.75 4.5V15C2.75 15.4641 2.93437 15.9092 3.26256 16.2374C3.59075 16.5656 4.03587 16.75 4.5 16.75H11.5C11.9641 16.75 12.4092 16.5656 12.7374 16.2374C13.0656 15.9092 13.25 15.4641 13.25 15V4.5M1 4.5H15M3.625 4.5L5.375 1H10.625L12.375 4.5" stroke="#5086FF" stroke-width="1.75" stroke-linecap="round" stroke-linejoin="round"/>
</svg>
